<svg xmlns="http://www.w3.org/2000/svg" width="32" height="32" viewBox="0 0 32 32">
    <g fill="none" fill-rule="evenodd">
        <path fill="#FFF" fill-opacity="0" d="M0 0h32v32H0z"/>
        <g fill-rule="nonzero">
            <circle cx="16" cy="16" r="16" fill="#4BCF51"/>
            <path fill="#FFF" d="M21.394 10.73c-.707-1.998-2.646-2.244-4.926-1.883l-.708-2.84-1.728.431.69 2.765c-.455.114-.917.238-1.376.363l-.694-2.784-1.728.431.708 2.84c-.373.1-.738.199-1.097.288l-.002-.009-2.384.594.46 1.846s1.27-.343 1.255-.314c.7-.174 1.03.175 1.183.51l.807 3.235c.049-.012.112-.026.186-.034l-.183.046 1.13 4.532c.024.228-.018.611-.507.734.027.014-1.256.313-1.256.313l.17 2.15 2.25-.561c.419-.104.833-.2 1.238-.298l.716 2.872 1.727-.43-.709-2.842a65.74 65.74 0 0 0 1.384-.33l.705 2.828 1.728-.431-.714-2.867c2.864-.892 4.716-2.13 4.288-4.922-.344-2.249-1.622-2.971-3.37-2.956.874-.76 1.277-1.816.757-3.277zm-.887 6.744c.536 2.146-3.2 2.818-4.371 3.111l-.948-3.805c1.171-.292 4.76-1.545 5.319.694zm-2.143-5.168c.487 1.952-2.635 2.489-3.61 2.732l-.861-3.451c.976-.244 3.963-1.318 4.471.719z"/>
        </g>
    </g>
</svg>
