<?xml version="1.0" encoding="UTF-8"?>
<svg width="32px" height="32px" viewBox="0 0 32 32" version="1.1" xmlns="http://www.w3.org/2000/svg" xmlns:xlink="http://www.w3.org/1999/xlink">
    <!-- Generator: Sketch 49.3 (51167) - http://www.bohemiancoding.com/sketch -->
    <title>ic_doge</title>
    <desc>Created with Sketch.</desc>
    <defs></defs>
    <g id="Preparing-icons" stroke="none" stroke-width="1" fill="none" fill-rule="evenodd">
        <g id="ic_doge" transform="translate(-0.000000, 0.000000)" fill-rule="nonzero">
            <circle id="Oval" fill="#C3A634" cx="16" cy="16" r="16"></circle>
            <path d="M13.248,14.61 L17.562,14.61 L17.562,16.896 L13.248,16.896 L13.248,21.714 L15.969,21.714 C17.046,21.714 17.927,21.569 18.613,21.277 C19.299,20.986 19.837,20.583 20.228,20.067 C20.618,19.552 20.884,18.947 21.024,18.252 C21.164,17.557 21.234,16.807 21.234,16 C21.234,15.193 21.164,14.443 21.024,13.748 C20.9002818,13.0902965 20.6280303,12.469522 20.228,11.933 C19.837,11.417 19.298,11.014 18.613,10.723 C17.927,10.431 17.046,10.286 15.969,10.286 L13.248,10.286 L13.248,14.611 L13.248,14.61 Z M10.482,16.896 L9,16.896 L9,14.611 L10.482,14.611 L10.482,8 L17.031,8 C18.241,8 19.288,8.21 20.173,8.627 C21.058,9.046 21.78,9.617 22.341,10.342 C22.901,11.066 23.318,11.914 23.591,12.885 C23.864,13.856 24,14.895 24,16 C24.0068639,17.0522243 23.8689032,18.1003887 23.59,19.115 C23.318,20.085 22.901,20.934 22.34,21.658 C21.78,22.383 21.058,22.954 20.173,23.373 C19.288,23.791 18.24,24 17.031,24 L10.482,24 L10.482,16.896 Z" id="Shape" fill="#FFFFFF"></path>
        </g>
    </g>
</svg>