<svg width="32" height="32" viewBox="0 0 32 32" fill="none" xmlns="http://www.w3.org/2000/svg">
<g clip-path="url(#clip0)">
<path d="M4.77237 15.6484C4.77237 13.3805 5.44499 11.1635 6.70518 9.27781C7.96537 7.39211 9.75653 5.92239 11.8522 5.0545C13.9478 4.18661 16.2537 3.95953 18.4784 4.40198C20.7031 4.84442 22.7466 5.93653 24.3506 7.54018C25.9545 9.14383 27.0468 11.187 27.4893 13.4113C27.9318 15.6357 27.7047 17.9413 26.8367 20.0365C25.9686 22.1318 24.4987 23.9227 22.6126 25.1827C20.7266 26.4426 18.5093 27.1152 16.241 27.1152C13.1993 27.1152 10.2822 25.9071 8.13146 23.7566C5.98067 21.6062 4.77237 18.6896 4.77237 15.6484" fill="white"/>
<path fill-rule="evenodd" clip-rule="evenodd" d="M16.1567 8.03162C17.8092 8.03157 19.4202 8.54957 20.7629 9.51274C22.1056 10.4759 23.1125 11.8358 23.6418 13.4009H20.1666C19.5941 12.4937 18.7308 11.8074 17.7177 11.4543C16.7046 11.1012 15.6017 11.1021 14.5892 11.4568C13.5767 11.8116 12.7145 12.4993 12.1435 13.4074C11.5725 14.3156 11.3265 15.3906 11.4457 16.4566C11.5649 17.5227 12.0422 18.5168 12.7997 19.2765C13.5572 20.0362 14.55 20.5166 15.6158 20.639C16.6817 20.7615 17.7576 20.5189 18.6677 19.9508C19.5778 19.3827 20.2682 18.5228 20.6262 17.5115H16.1738V14.3516H23.8973C24.0022 14.8717 24.0551 15.401 24.0553 15.9316C24.0553 17.494 23.5919 19.0214 22.7237 20.3205C21.8555 21.6197 20.6215 22.6322 19.1778 23.2301C17.734 23.8281 16.1453 23.9845 14.6126 23.6797C13.0799 23.3749 11.6721 22.6225 10.5671 21.5176C9.46205 20.4128 8.70953 19.0052 8.40466 17.4728C8.09979 15.9403 8.25626 14.3519 8.85429 12.9084C9.45231 11.4649 10.465 10.2311 11.7644 9.363C13.0637 8.49494 14.5914 8.03162 16.1541 8.03162" fill="#5FA560"/>
<path fill-rule="evenodd" clip-rule="evenodd" d="M30.9676 22.0085C30.9676 22.0085 34.7299 14.8472 27.89 12.3034C29.0502 12.5549 30.8504 13.0249 31.9513 13.7109C31.9513 13.7109 31.6286 5.62797 24.4332 6.84587C25.5644 6.48248 27.3567 5.98873 28.6538 6.03218C28.6538 6.03218 24.3332 -0.805212 18.7101 3.84653C19.5002 2.96569 20.8171 1.64245 21.9588 1.03152C21.9588 1.03152 15.3179 -2.4563 12.5537 3.38965C12.825 2.29288 13.2385 0.944624 13.7942 0.0532479C13.7942 0.0532479 5.74156 0.374512 6.92016 7.5279C6.55539 6.39821 6.05761 4.58913 6.09844 3.283C6.09844 3.283 -0.713745 7.58583 3.88346 13.1922C3.00379 12.4022 1.66584 11.0855 1.05086 9.92553C1.0535 9.92553 -2.69827 17.0592 4.0823 19.6174C2.92214 19.3686 1.10486 18.8972 0 18.206C0 18.206 0.321317 26.2573 7.47588 25.0789C6.34601 25.4423 4.53663 25.9427 3.23029 25.8992C3.23029 25.8992 7.53383 32.7116 13.1411 28.1138C12.3509 28.9933 11.0341 30.3324 9.87523 30.9473C9.87523 30.9473 17.7001 35.0592 19.8966 26.8748L13.868 27.2698L13.8272 27.3199L8.52543 24.7116L8.46486 24.734L5.17267 19.8242L5.10946 19.8136L4.7144 13.9176L4.66436 13.8768L7.28362 8.57596L7.26123 8.51539L12.1719 5.22376C12.1719 5.22376 12.1811 5.17241 12.1969 5.08024L17.9661 4.69841L18.0491 4.59703L23.3587 7.21059L23.4825 7.16451L26.7747 12.0835L26.9063 12.1046L27.3014 18.0098C27.3014 18.0098 27.3396 18.0388 27.4028 18.0927L24.7888 23.4015L24.8349 23.5253L19.9164 26.8169C19.9164 26.8169 19.3725 30.2665 18.2953 31.994C18.2953 31.994 26.3783 31.6714 25.1615 24.4759C25.5249 25.6069 26.0174 27.4002 25.974 28.6971C25.974 28.6971 32.8138 24.3758 28.1613 18.7537C29.041 19.5516 30.3644 20.8604 30.9755 22.0032" fill="#F9C01C"/>
<path fill-rule="evenodd" clip-rule="evenodd" d="M16.1567 4.18298C13.833 4.18298 11.5615 4.87191 9.62937 6.16265C7.69726 7.45339 6.19135 9.28798 5.30204 11.4344C4.41274 13.5809 4.17999 15.9428 4.63323 18.2215C5.08646 20.5002 6.20533 22.5933 7.84834 24.2362C9.49136 25.8792 11.5847 26.9981 13.8638 27.4515C16.1428 27.9049 18.5051 27.6725 20.652 26.7836C22.7989 25.8946 24.6339 24.3892 25.9251 22.4575C27.2163 20.5259 27.9056 18.2548 27.9058 15.9315C27.9058 12.816 26.668 9.828 24.4646 7.62498C22.2612 5.42195 19.2728 4.1843 16.1567 4.1843V4.18298ZM16.1567 7.12176C17.8994 7.12176 19.6029 7.63844 21.0519 8.60647C22.5009 9.5745 23.6303 10.9504 24.2972 12.5602C24.9641 14.1699 25.1386 15.9413 24.7986 17.6502C24.4586 19.3591 23.6194 20.9289 22.3872 22.1609C21.1549 23.393 19.5849 24.232 17.8757 24.572C16.1665 24.9119 14.3948 24.7374 12.7848 24.0706C11.1748 23.4039 9.79865 22.2747 8.83046 20.8259C7.86228 19.3772 7.34551 17.6739 7.34551 15.9315C7.34551 13.595 8.27383 11.3542 9.92625 9.70207C11.5787 8.04993 13.8198 7.12176 16.1567 7.12176" fill="#5FA560"/>
</g>
<defs>
<clipPath id="clip0">
<rect width="32" height="32" fill="white"/>
</clipPath>
</defs>
</svg>
