<svg xmlns="http://www.w3.org/2000/svg" xmlns:xlink="http://www.w3.org/1999/xlink" width="24" height="24" viewBox="0 0 24 24">
    <path transform="translate(2 3)" d="M10 5.013a.75.75 0 0 1 1.5 0v3.613a.2.2 0 0 0 .094.17l3.232 2.023a.811.811 0 0 1 .26 1.115.748.748 0 0 1-1.032.24l-3.866-2.41a.4.4 0 0 1-.188-.34v-4.41zM2 6.214h4.4a1 1 0 1 1 0 2H1a1 1 0 0 1-1-1V1.881a1 1 0 0 1 2 0v4.333zm.317 5.78a1 1 0 1 1 1.884-.671c1.049 2.94 3.946 4.845 7.106 4.666 3.16-.18 5.815-2.399 6.515-5.438.7-3.036-.719-6.165-3.484-7.675a7.186 7.186 0 0 0-8.482 1.196L1.68 7.947A1 1 0 0 1 .32 6.481l4.154-3.855C7.342-.2 11.753-.814 15.297 1.121 18.847 3.06 20.673 7.087 19.77 11c-.9 3.91-4.306 6.756-8.35 6.985-4.043.23-7.755-2.21-9.104-5.99z"/>
</svg>
