<svg xmlns="http://www.w3.org/2000/svg" xmlns:xlink="http://www.w3.org/1999/xlink" width="24" height="24" viewBox="0 0 24 24">
    <path transform="translate(3 2)" d="M3.6 8.182V5.455C3.6 2.442 6.018 0 9 0s5.4 2.442 5.4 5.455v2.727h.9c1.491 0 2.7 1.22 2.7 2.727v6.364C18 18.779 16.791 20 15.3 20H2.7C1.209 20 0 18.779 0 17.273v-6.364c0-1.506 1.209-2.727 2.7-2.727h.9zm1.8 0h7.2V5.455c0-2.009-1.612-3.637-3.6-3.637S5.4 3.446 5.4 5.455v2.727zM2.7 10c-.497 0-.9.407-.9.91v6.363c0 .502.403.909.9.909h12.6c.497 0 .9-.407.9-.91V10.91a.905.905 0 0 0-.9-.909H2.7z"/>
</svg>
