<svg xmlns="http://www.w3.org/2000/svg" width="24" height="24" viewBox="0 0 24 24">
    <g fill="none" fill-rule="evenodd">
        <path fill="#D8D8D8" fill-opacity="0" d="M0 0h24v24H0z"/>
        <g fill-rule="nonzero">
            <path fill="#FF5F00" d="M8.749 6.117h6.461v11.665H8.75z"/>
            <path fill="#EB001B" d="M9.159 11.95a7.417 7.417 0 0 1 2.82-5.833 7.361 7.361 0 0 0-9.988.8 7.442 7.442 0 0 0 0 10.065 7.361 7.361 0 0 0 9.988.8 7.417 7.417 0 0 1-2.82-5.831z"/>
            <path fill="#F79E1B" d="M23.928 11.95a7.42 7.42 0 0 1-4.157 6.672 7.358 7.358 0 0 1-7.792-.84 7.43 7.43 0 0 0 2.822-5.832 7.43 7.43 0 0 0-2.822-5.833 7.358 7.358 0 0 1 7.792-.84 7.42 7.42 0 0 1 4.157 6.671v.003zM23.223 16.544v-.238h.096v-.05h-.244v.05h.104v.238h.044zm.473 0v-.287h-.073l-.087.205-.086-.205h-.065v.287h.053v-.215l.08.186h.055l.08-.186v.217l.043-.002z"/>
        </g>
    </g>
</svg>
