<svg xmlns="http://www.w3.org/2000/svg" xmlns:xlink="http://www.w3.org/1999/xlink" width="24" height="24" viewBox="0 0 24 24">
    <path transform="translate(2 2)" d="M4.893 16.393A8.147 8.147 0 0 0 10 18.182c1.932 0 3.707-.67 5.107-1.79l-2.6-2.6a4.524 4.524 0 0 1-2.507.753 4.524 4.524 0 0 1-2.507-.753l-2.6 2.6zm-1.286-1.286l2.6-2.6A4.524 4.524 0 0 1 5.456 10c0-.926.277-1.788.753-2.507l-2.6-2.6A8.147 8.147 0 0 0 1.817 10c0 1.932.67 3.707 1.79 5.107zm10.185-7.614c.476.719.753 1.58.753 2.507 0 .926-.277 1.788-.753 2.507l2.6 2.6A8.147 8.147 0 0 0 18.183 10c0-1.932-.67-3.707-1.79-5.107l-2.6 2.6zm-1.285-1.285l2.6-2.6A8.147 8.147 0 0 0 10 1.817c-1.932 0-3.707.67-5.107 1.79l2.6 2.6A4.524 4.524 0 0 1 10 5.455c.926 0 1.788.277 2.507.753zM10 20C4.477 20 0 15.523 0 10S4.477 0 10 0s10 4.477 10 10-4.477 10-10 10zm0-7.273a2.727 2.727 0 1 0 0-5.454 2.727 2.727 0 0 0 0 5.454z"/>
</svg>
