<?xml version="1.0" encoding="UTF-8"?>
<svg width="32px" height="32px" viewBox="0 0 32 32" version="1.1" xmlns="http://www.w3.org/2000/svg" xmlns:xlink="http://www.w3.org/1999/xlink">
    <!-- Generator: Sketch 50.2 (55047) - http://www.bohemiancoding.com/sketch -->
    <title>ic_trx</title>
    <desc>Created with Sketch.</desc>
    <defs></defs>
    <g id="Symbols" stroke="none" stroke-width="1" fill="none" fill-rule="evenodd">
        <g id="Icons-/-Currencies-/-Tron">
            <g>
                <rect id="bounds" fill-opacity="0" fill="#D8D8D8" x="0" y="0" width="32" height="32"></rect>
                <g id="ic_trx" fill-rule="nonzero">
                    <circle id="Oval" fill="#E50915" cx="16" cy="16" r="16"></circle>
                    <path d="M25.7154245,11.7923037 C24.8220005,11.1685341 23.866605,10.5035236 22.9318666,9.8436684 C22.9112094,9.82820306 22.8905522,9.81273761 22.8647307,9.79727227 C22.7614447,9.71994546 22.6426658,9.63746361 22.4980654,9.59106748 L22.4877368,9.58591244 C19.9882155,8.98276338 17.4473797,8.36414902 14.9891726,7.76615513 C12.7581949,7.22486756 10.5323814,6.68357999 8.30140369,6.14229242 C8.24459638,6.12682706 8.18778908,6.1113617 8.12581748,6.09589634 C7.92440976,6.03919002 7.69201624,5.97732858 7.44412983,6.00825931 C7.37182963,6.01856954 7.30985802,6.04434515 7.25305072,6.08043098 L7.19107911,6.13198218 C7.09295741,6.22477433 7.0413144,6.34334209 7.0154929,6.41035864 L7,6.4515996 L7,6.6887351 L7.0103286,6.72482094 C8.4201826,10.6684876 9.86618666,14.6688604 11.2605478,18.5403553 C12.3347223,21.5200145 13.4502112,24.6079312 14.5398785,27.6391416 C14.6070145,27.8453464 14.7980935,27.9793795 15.0356513,28 L15.0872943,28 C15.3093593,28 15.5056027,27.8917425 15.6037244,27.7164684 L19.6938503,21.7623051 C20.6905603,20.3137166 21.6872702,18.8599727 22.6839802,17.4113842 C23.0919599,16.8185453 23.4999396,16.2205514 23.9079194,15.6277127 C24.5792784,14.6482399 25.2712947,13.6378365 25.9581467,12.6532087 L25.9942967,12.6016574 L25.9942967,12.539796 C26.0097897,12.3593668 26.014954,11.9881982 25.7154245,11.7923037 M20.9229538,13.9626091 C19.9623939,14.4626556 18.9811768,14.9781677 17.9947955,15.4885244 C18.5680329,14.8750652 19.1464344,14.2564508 19.7196718,13.6429916 C20.4375096,12.8697236 21.1863331,12.0706801 21.9196637,11.2871019 L21.9351566,11.2716365 C21.9971283,11.1891546 22.0745927,11.1118278 22.1572216,11.0293459 C22.2140289,10.9726395 22.2760004,10.9159332 22.3328077,10.8489167 C22.714966,11.1118278 23.1022885,11.3798941 23.4741182,11.6428052 C23.7426617,11.8335445 24.0163697,12.024284 24.295242,12.2150234 C23.1590958,12.7923968 22.0229497,13.3852357 20.9229538,13.9626091 M18.4544182,13.7151633 C17.7159232,14.5142068 16.9516069,15.3338709 16.1924546,16.1432246 C14.7206291,14.3595533 13.2178176,12.5501062 11.7614849,10.8025207 C11.1004545,10.0086322 10.4342597,9.20958865 9.77322927,8.41570021 L9.76806496,8.41054509 C9.61830025,8.24042615 9.47369986,8.05484183 9.32909946,7.87956776 C9.23614207,7.76100001 9.13802035,7.64758737 9.03989864,7.52901963 C9.6389575,7.68367321 10.2431806,7.82801657 10.8370751,7.9672048 C11.3586695,8.09092768 11.900921,8.21980567 12.432844,8.35383877 C15.4281382,9.08071066 18.4285967,9.80758257 21.4238909,10.5344544 C20.427181,11.5964091 19.4253067,12.6738291 18.4544182,13.7151633 M15.8567751,23.7624916 C15.9135824,23.221204 15.9755541,22.6644511 16.0271971,22.1180084 C16.0736758,21.6798233 16.1201544,21.2313279 16.1666331,20.8034528 C16.2389334,20.117822 16.3163978,19.4064154 16.3783695,18.7104743 L16.3938624,18.5867514 C16.4455054,18.1434111 16.4971483,17.6846055 16.5281342,17.2257998 C16.5849415,17.1948691 16.6469131,17.1639384 16.714049,17.1381628 C16.7915135,17.1020769 16.868978,17.0711462 16.9464425,17.0247501 C18.1393959,16.4009807 19.3323493,15.7772112 20.530467,15.1585968 C21.7234203,14.5399824 22.9473595,13.9007476 24.1609701,13.2666679 C23.0558098,14.864755 21.9454853,16.4783074 20.8713108,18.0506189 C19.946901,19.3961053 18.9966697,20.7828324 18.0516028,22.1489392 C17.6797731,22.6953818 17.2924506,23.2521348 16.9257853,23.7882672 C16.5126412,24.3862611 16.0891687,24.9997203 15.6760246,25.6131795 C15.7276676,24.9945653 15.7896392,24.3707957 15.8567751,23.7624916 M8.65774042,8.74562788 C8.59060451,8.56004356 8.5183043,8.36930414 8.4563327,8.18887494 C9.85069383,9.86944393 11.2553835,11.5603232 12.6239231,13.1996513 C13.3314322,14.0502461 14.0389414,14.8956857 14.7464505,15.7514355 C14.8858866,15.9112443 15.0253228,16.0813633 15.1595946,16.2463271 C15.3351807,16.4576869 15.510767,16.6793572 15.7018461,16.890717 C15.6398745,17.4216944 15.5882315,17.9578268 15.5314242,18.4733388 C15.4952741,18.8341972 15.459124,19.1950555 15.4178096,19.5610691 L15.4178096,19.5662241 C15.4023167,19.7982045 15.3713309,20.030185 15.3455094,20.2570102 C15.3093593,20.5714725 15.2267305,21.282879 15.2267305,21.282879 L15.2215662,21.3189649 C15.1286088,22.360299 15.0149942,23.4119435 14.9065439,24.4326572 C14.8600652,24.855377 14.8187508,25.2884071 14.7722721,25.7214371 C14.7464505,25.6441103 14.7154648,25.5667835 14.6896432,25.4946118 C14.6121788,25.2884071 14.5347142,25.071892 14.4624141,24.8605321 L13.9098339,23.3294615 C12.159136,18.4681836 10.4084383,13.6120608 8.65774042,8.74562788" id="Shape" stroke="#FFFFFF" stroke-width="0.5" fill="#FFFFFF"></path>
                </g>
            </g>
        </g>
    </g>
</svg>